%TF.GenerationSoftware,KiCad,Pcbnew,9.0.2-rc1*%
%TF.CreationDate,2025-05-07T10:44:18+01:00*%
%TF.ProjectId,Astro Droid BodyNeck,41737472-6f20-4447-926f-696420426f64,rev?*%
%TF.SameCoordinates,Original*%
%TF.FileFunction,Copper,L4,Bot*%
%TF.FilePolarity,Positive*%
%FSLAX46Y46*%
G04 Gerber Fmt 4.6, Leading zero omitted, Abs format (unit mm)*
G04 Created by KiCad (PCBNEW 9.0.2-rc1) date 2025-05-07 10:44:18*
%MOMM*%
%LPD*%
G01*
G04 APERTURE LIST*
G04 Aperture macros list*
%AMRoundRect*
0 Rectangle with rounded corners*
0 $1 Rounding radius*
0 $2 $3 $4 $5 $6 $7 $8 $9 X,Y pos of 4 corners*
0 Add a 4 corners polygon primitive as box body*
4,1,4,$2,$3,$4,$5,$6,$7,$8,$9,$2,$3,0*
0 Add four circle primitives for the rounded corners*
1,1,$1+$1,$2,$3*
1,1,$1+$1,$4,$5*
1,1,$1+$1,$6,$7*
1,1,$1+$1,$8,$9*
0 Add four rect primitives between the rounded corners*
20,1,$1+$1,$2,$3,$4,$5,0*
20,1,$1+$1,$4,$5,$6,$7,0*
20,1,$1+$1,$6,$7,$8,$9,0*
20,1,$1+$1,$8,$9,$2,$3,0*%
G04 Aperture macros list end*
%TA.AperFunction,ComponentPad*%
%ADD10C,1.600000*%
%TD*%
%TA.AperFunction,ComponentPad*%
%ADD11RoundRect,0.250000X-0.550000X-0.550000X0.550000X-0.550000X0.550000X0.550000X-0.550000X0.550000X0*%
%TD*%
%TA.AperFunction,ComponentPad*%
%ADD12R,1.700000X1.700000*%
%TD*%
%TA.AperFunction,ComponentPad*%
%ADD13C,1.700000*%
%TD*%
%TA.AperFunction,ComponentPad*%
%ADD14C,2.000000*%
%TD*%
%TA.AperFunction,ComponentPad*%
%ADD15RoundRect,0.400000X-0.900000X-0.400000X0.900000X-0.400000X0.900000X0.400000X-0.900000X0.400000X0*%
%TD*%
%TA.AperFunction,ComponentPad*%
%ADD16RoundRect,0.400050X-0.899950X-0.400050X0.899950X-0.400050X0.899950X0.400050X-0.899950X0.400050X0*%
%TD*%
%TA.AperFunction,ComponentPad*%
%ADD17RoundRect,0.400000X-0.400000X-0.900000X0.400000X-0.900000X0.400000X0.900000X-0.400000X0.900000X0*%
%TD*%
%TA.AperFunction,ComponentPad*%
%ADD18RoundRect,0.393700X-0.393700X-0.906300X0.393700X-0.906300X0.393700X0.906300X-0.393700X0.906300X0*%
%TD*%
%TA.AperFunction,ComponentPad*%
%ADD19RoundRect,0.250000X0.550000X-0.550000X0.550000X0.550000X-0.550000X0.550000X-0.550000X-0.550000X0*%
%TD*%
%TA.AperFunction,ComponentPad*%
%ADD20RoundRect,0.250000X-0.600000X-0.725000X0.600000X-0.725000X0.600000X0.725000X-0.600000X0.725000X0*%
%TD*%
%TA.AperFunction,ComponentPad*%
%ADD21O,1.700000X1.950000*%
%TD*%
%TA.AperFunction,ComponentPad*%
%ADD22O,1.700000X1.700000*%
%TD*%
%TA.AperFunction,ComponentPad*%
%ADD23RoundRect,0.425000X-0.425000X-0.425000X0.425000X-0.425000X0.425000X0.425000X-0.425000X0.425000X0*%
%TD*%
%TA.AperFunction,ComponentPad*%
%ADD24R,2.032000X2.032000*%
%TD*%
%TA.AperFunction,ComponentPad*%
%ADD25C,2.032000*%
%TD*%
%TA.AperFunction,ComponentPad*%
%ADD26R,1.600000X1.600000*%
%TD*%
%TA.AperFunction,ComponentPad*%
%ADD27O,1.600000X1.600000*%
%TD*%
%TA.AperFunction,ViaPad*%
%ADD28C,0.600000*%
%TD*%
%TA.AperFunction,Conductor*%
%ADD29C,1.000000*%
%TD*%
%TA.AperFunction,Conductor*%
%ADD30C,0.500000*%
%TD*%
%TA.AperFunction,Conductor*%
%ADD31C,0.200000*%
%TD*%
G04 APERTURE END LIST*
D10*
%TO.P,C3,2*%
%TO.N,GNDA*%
X68129349Y-69850000D03*
D11*
%TO.P,C3,1*%
%TO.N,+6V*%
X63129349Y-69850000D03*
%TD*%
D12*
%TO.P,WS2812B-1,1,Out*%
%TO.N,Net-(WS2812B-1-Out)*%
X93780000Y-92860000D03*
D13*
%TO.P,WS2812B-1,2,Gnd*%
%TO.N,GND*%
X96320000Y-92860000D03*
%TO.P,WS2812B-1,3,In*%
%TO.N,Net-(WS2812B-1-In)*%
X98860000Y-92860000D03*
%TO.P,WS2812B-1,4,VDD*%
%TO.N,+5V*%
X101400000Y-92860000D03*
%TD*%
D12*
%TO.P,J6,1,Pin_1*%
%TO.N,+3V3*%
X114300000Y-93760000D03*
D13*
%TO.P,J6,2,Pin_2*%
%TO.N,/step_sleep*%
X111760000Y-93760000D03*
%TO.P,J6,3,Pin_3*%
%TO.N,GND*%
X109220000Y-93760000D03*
%TO.P,J6,4,Pin_4*%
X106680000Y-93760000D03*
%TD*%
D12*
%TO.P,J5,1,Pin_1*%
%TO.N,+3V3*%
X114300000Y-89662000D03*
D13*
%TO.P,J5,2,Pin_2*%
%TO.N,/step_sleep*%
X111760000Y-89662000D03*
%TO.P,J5,3,Pin_3*%
%TO.N,GND*%
X109220000Y-89662000D03*
%TD*%
D10*
%TO.P,C1,1*%
%TO.N,GND*%
X117805200Y-69494400D03*
%TO.P,C1,2*%
%TO.N,/hall_sensor*%
X117805200Y-64494400D03*
%TD*%
D14*
%TO.P,SW1,1,A*%
%TO.N,/sw*%
X45645000Y-75474000D03*
X52145000Y-75474000D03*
%TO.P,SW1,2,B*%
%TO.N,GND*%
X45645000Y-79974000D03*
X52145000Y-79974000D03*
%TD*%
D15*
%TO.P,RZ1,0,GP0*%
%TO.N,/TX*%
X90961000Y-58599000D03*
%TO.P,RZ1,1,GP1*%
%TO.N,/RX*%
X90961000Y-61139000D03*
%TO.P,RZ1,2,GP2*%
%TO.N,/step_step*%
X90961000Y-63679000D03*
%TO.P,RZ1,3,GP3*%
X90961000Y-66219000D03*
%TO.P,RZ1,4,GP4*%
%TO.N,/step_dir*%
X90961000Y-68759000D03*
D16*
%TO.P,RZ1,5,GP5*%
%TO.N,/PWM2B*%
X90961000Y-71299000D03*
%TO.P,RZ1,6,GP6*%
%TO.N,/step_sleep*%
X90961000Y-73839000D03*
%TO.P,RZ1,7,GP7*%
%TO.N,/PWM3B*%
X90961000Y-76379000D03*
%TO.P,RZ1,8,GP8*%
%TO.N,Net-(D2-A)*%
X90961000Y-78919000D03*
D17*
%TO.P,RZ1,9,GP9*%
%TO.N,/BusServoSig*%
X87821000Y-79729000D03*
D18*
%TO.P,RZ1,10,GP10*%
%TO.N,/WS2812B*%
X85281000Y-79729000D03*
%TO.P,RZ1,11,GP11*%
%TO.N,/PWM5B*%
X82741000Y-79729000D03*
%TO.P,RZ1,12,GP12*%
%TO.N,/hall_sensor*%
X80201000Y-79729000D03*
%TO.P,RZ1,13,GP13*%
%TO.N,/PWM6B*%
X77661000Y-79729000D03*
D16*
%TO.P,RZ1,14,GP14*%
%TO.N,/sw*%
X74521000Y-78919000D03*
%TO.P,RZ1,15,GP15*%
%TO.N,/PWM7B*%
X74521000Y-76379000D03*
%TO.P,RZ1,26,GP26*%
%TO.N,/step_m0*%
X74521000Y-73839000D03*
%TO.P,RZ1,27,GP27*%
%TO.N,/step_m1*%
X74521000Y-71299000D03*
%TO.P,RZ1,28,GP28*%
%TO.N,/step_m2*%
X74521000Y-68759000D03*
%TO.P,RZ1,29,GP29*%
%TO.N,unconnected-(RZ1-GP29-Pad29)*%
X74521000Y-66219000D03*
%TO.P,RZ1,30,3V3*%
%TO.N,+3V3*%
X74521000Y-63679000D03*
%TO.P,RZ1,31,GND*%
%TO.N,GND*%
X74521000Y-61139000D03*
%TO.P,RZ1,32,5V*%
%TO.N,+5V*%
X74521000Y-58599000D03*
%TD*%
D10*
%TO.P,R1,1*%
%TO.N,+5V*%
X70680000Y-82310000D03*
%TO.P,R1,2*%
%TO.N,/BusServoSigH*%
X70680000Y-92470000D03*
%TD*%
D19*
%TO.P,D2,1,K*%
%TO.N,/BusServoSig*%
X88011000Y-92506800D03*
D10*
%TO.P,D2,2,A*%
%TO.N,Net-(D2-A)*%
X88011000Y-84886800D03*
%TD*%
D13*
%TO.P,SV5,3,Pin_3*%
%TO.N,GNDA*%
X63398400Y-92456000D03*
%TO.P,SV5,2,Pin_2*%
%TO.N,+6V*%
X63398400Y-89916000D03*
D12*
%TO.P,SV5,1,Pin_1*%
%TO.N,/PWM6B*%
X63398400Y-87376000D03*
%TD*%
D10*
%TO.P,R3,1*%
%TO.N,+3V3*%
X99800000Y-86270000D03*
%TO.P,R3,2*%
%TO.N,/hall_sensor*%
X99800000Y-76110000D03*
%TD*%
D12*
%TO.P,J4,1,Pin_1*%
%TO.N,+5V*%
X121158000Y-67767200D03*
D13*
%TO.P,J4,2,Pin_2*%
%TO.N,GND*%
X121158000Y-65227200D03*
%TO.P,J4,3,Pin_3*%
%TO.N,/hall_sensor*%
X121158000Y-62687200D03*
%TD*%
D20*
%TO.P,J1,1,Pin_1*%
%TO.N,Net-(A1-B2)*%
X108578000Y-59256000D03*
D21*
%TO.P,J1,2,Pin_2*%
%TO.N,Net-(A1-B1)*%
X111078000Y-59256000D03*
%TO.P,J1,3,Pin_3*%
%TO.N,Net-(A1-A1)*%
X113578000Y-59256000D03*
%TO.P,J1,4,Pin_4*%
%TO.N,Net-(A1-A2)*%
X116078000Y-59256000D03*
%TD*%
D13*
%TO.P,SV3,3,Pin_3*%
%TO.N,GNDA*%
X60833000Y-92456000D03*
%TO.P,SV3,2,Pin_2*%
%TO.N,+6V*%
X60833000Y-89916000D03*
D12*
%TO.P,SV3,1,Pin_1*%
%TO.N,/PWM5B*%
X60833000Y-87376000D03*
%TD*%
D20*
%TO.P,BS2,1,Pin_1*%
%TO.N,GNDA*%
X51388000Y-67056000D03*
D21*
%TO.P,BS2,2,Pin_2*%
%TO.N,+6V*%
X53888000Y-67056000D03*
%TO.P,BS2,3,Pin_3*%
%TO.N,/BusServoSigH*%
X56388000Y-67056000D03*
%TD*%
D12*
%TO.P,SV2,1,Pin_1*%
%TO.N,/PWM3B*%
X58293000Y-87376000D03*
D13*
%TO.P,SV2,2,Pin_2*%
%TO.N,+6V*%
X58293000Y-89916000D03*
%TO.P,SV2,3,Pin_3*%
%TO.N,GNDA*%
X58293000Y-92456000D03*
%TD*%
%TO.P,SV4,3,Pin_3*%
%TO.N,GNDA*%
X65938400Y-92456000D03*
%TO.P,SV4,2,Pin_2*%
%TO.N,+6V*%
X65938400Y-89916000D03*
D12*
%TO.P,SV4,1,Pin_1*%
%TO.N,/PWM7B*%
X65938400Y-87376000D03*
%TD*%
D13*
%TO.P,SV1,3,Pin_3*%
%TO.N,GNDA*%
X55753000Y-92456000D03*
%TO.P,SV1,2,Pin_2*%
%TO.N,+6V*%
X55753000Y-89916000D03*
D12*
%TO.P,SV1,1,Pin_1*%
%TO.N,/PWM2B*%
X55753000Y-87376000D03*
%TD*%
D10*
%TO.P,R2,1*%
%TO.N,/WS2812BH*%
X91998800Y-89001600D03*
%TO.P,R2,2*%
%TO.N,Net-(WS2812B-1-In)*%
X102158800Y-89001600D03*
%TD*%
D12*
%TO.P,U1,1,HV2*%
%TO.N,/WS2812BH*%
X74422000Y-84836000D03*
D22*
%TO.P,U1,2,GND*%
%TO.N,GND*%
X74422000Y-87376000D03*
%TO.P,U1,3,HV*%
%TO.N,+5V*%
X74422000Y-89916000D03*
%TO.P,U1,4,HV1*%
%TO.N,/BusServoSigH*%
X74422000Y-92456000D03*
%TO.P,U1,5,LV1*%
%TO.N,/BusServoSig*%
X84480400Y-92487200D03*
%TO.P,U1,6,LV*%
%TO.N,+3V3*%
X84480400Y-89947200D03*
%TO.P,U1,7,GND*%
%TO.N,GND*%
X84480400Y-87407200D03*
D23*
%TO.P,U1,8,LV2*%
%TO.N,/WS2812B*%
X84480400Y-84867200D03*
%TD*%
D11*
%TO.P,C2,1*%
%TO.N,+12V*%
X94625349Y-69850000D03*
D10*
%TO.P,C2,2*%
%TO.N,GNDA*%
X99625349Y-69850000D03*
%TD*%
D24*
%TO.P,P2,1,Pin_1*%
%TO.N,+12V*%
X96560640Y-60681220D03*
D25*
%TO.P,P2,2,Pin_2*%
%TO.N,GNDA*%
X101559360Y-60681220D03*
%TD*%
D24*
%TO.P,P3,1,Pin_1*%
%TO.N,+6V*%
X63606680Y-60681220D03*
D25*
%TO.P,P3,2,Pin_2*%
%TO.N,GNDA*%
X68605400Y-60681220D03*
%TD*%
D12*
%TO.P,J2,1,Pin_1*%
%TO.N,/TX*%
X94920000Y-84660000D03*
D13*
%TO.P,J2,2,Pin_2*%
%TO.N,/RX*%
X94920000Y-82120000D03*
%TO.P,J2,3,Pin_3*%
%TO.N,GND*%
X94920000Y-79580000D03*
%TD*%
D26*
%TO.P,A1,1,GND*%
%TO.N,GND*%
X121259600Y-73558400D03*
D27*
%TO.P,A1,2,~{FLT}*%
%TO.N,unconnected-(A1-~{FLT}-Pad2)*%
X118719600Y-73558400D03*
%TO.P,A1,3,A2*%
%TO.N,Net-(A1-A2)*%
X116179600Y-73558400D03*
%TO.P,A1,4,A1*%
%TO.N,Net-(A1-A1)*%
X113639600Y-73558400D03*
%TO.P,A1,5,B1*%
%TO.N,Net-(A1-B1)*%
X111099600Y-73558400D03*
%TO.P,A1,6,B2*%
%TO.N,Net-(A1-B2)*%
X108559600Y-73558400D03*
%TO.P,A1,7,GND*%
%TO.N,GNDA*%
X106019600Y-73558400D03*
%TO.P,A1,8,VMOT*%
%TO.N,+12V*%
X103479600Y-73558400D03*
%TO.P,A1,9,~{EN}*%
%TO.N,GND*%
X103479600Y-86258400D03*
%TO.P,A1,10,M0*%
%TO.N,/step_m0*%
X106019600Y-86258400D03*
%TO.P,A1,11,M1*%
%TO.N,/step_m1*%
X108559600Y-86258400D03*
%TO.P,A1,12,M2*%
%TO.N,/step_m2*%
X111099600Y-86258400D03*
%TO.P,A1,13,~{RST}*%
%TO.N,+3V3*%
X113639600Y-86258400D03*
%TO.P,A1,14,~{SLP}*%
%TO.N,/step_sleep*%
X116179600Y-86258400D03*
%TO.P,A1,15,STEP*%
%TO.N,/step_step*%
X118719600Y-86258400D03*
%TO.P,A1,16,DIR*%
%TO.N,/step_dir*%
X121259600Y-86258400D03*
%TD*%
D20*
%TO.P,BS1,1,Pin_1*%
%TO.N,GNDA*%
X51388000Y-59256000D03*
D21*
%TO.P,BS1,2,Pin_2*%
%TO.N,+6V*%
X53888000Y-59256000D03*
%TO.P,BS1,3,Pin_3*%
%TO.N,/BusServoSigH*%
X56388000Y-59256000D03*
%TD*%
D12*
%TO.P,J3,1,Pin_1*%
%TO.N,GND*%
X51866800Y-89916000D03*
D13*
%TO.P,J3,2,Pin_2*%
%TO.N,GNDA*%
X51866800Y-92456000D03*
%TD*%
D28*
%TO.N,/BusServoSigH*%
X64270000Y-81360000D03*
%TO.N,/sw*%
X66040000Y-78740000D03*
%TD*%
D29*
%TO.N,GNDA*%
X101559360Y-60681220D02*
X97976040Y-57097900D01*
X97976040Y-57097900D02*
X72188720Y-57097900D01*
X72188720Y-57097900D02*
X68605400Y-60681220D01*
X68129349Y-69850000D02*
X68129349Y-90265051D01*
X68129349Y-90265051D02*
X65938400Y-92456000D01*
X68605400Y-60681220D02*
X68605400Y-69373949D01*
X68605400Y-69373949D02*
X68129349Y-69850000D01*
X99625349Y-69850000D02*
X102311200Y-69850000D01*
X102311200Y-69850000D02*
X106019600Y-73558400D01*
X101559360Y-67915989D02*
X99625349Y-69850000D01*
D30*
%TO.N,GND*%
X109220000Y-93760000D02*
X106680000Y-93760000D01*
X106680000Y-93760000D02*
X107981000Y-95061000D01*
D29*
%TO.N,GNDA*%
X51388000Y-67056000D02*
X51388000Y-59256000D01*
X51388000Y-59256000D02*
X54530220Y-62398220D01*
X54530220Y-62398220D02*
X66888400Y-62398220D01*
X66888400Y-62398220D02*
X68605400Y-60681220D01*
D31*
%TO.N,Net-(WS2812B-1-In)*%
X98860000Y-92860000D02*
X102158800Y-89561200D01*
X102158800Y-89561200D02*
X102158800Y-89001600D01*
D30*
%TO.N,GND*%
X96320000Y-92860000D02*
X98070000Y-94610000D01*
X98070000Y-94610000D02*
X105830000Y-94610000D01*
X105830000Y-94610000D02*
X106680000Y-93760000D01*
X94920000Y-79580000D02*
X93619000Y-80881000D01*
X93619000Y-89453400D02*
X96570800Y-92405200D01*
X93619000Y-80881000D02*
X93619000Y-89453400D01*
D31*
%TO.N,/sw*%
X66040000Y-78740000D02*
X62774000Y-75474000D01*
X62774000Y-75474000D02*
X52145000Y-75474000D01*
D30*
%TO.N,GND*%
X88177400Y-91104200D02*
X90250000Y-91104200D01*
D31*
%TO.N,/sw*%
X45645000Y-75474000D02*
X52145000Y-75474000D01*
D30*
%TO.N,+3V3*%
X114300000Y-93760000D02*
X114300000Y-89662000D01*
%TO.N,/step_sleep*%
X111760000Y-93760000D02*
X111760000Y-89662000D01*
%TO.N,GND*%
X109220000Y-93760000D02*
X109220000Y-89662000D01*
X117805200Y-69494400D02*
X117805200Y-68580000D01*
X117805200Y-68580000D02*
X121158000Y-65227200D01*
X121259600Y-73558400D02*
X121259600Y-72948800D01*
X121259600Y-72948800D02*
X117805200Y-69494400D01*
X122688000Y-87813315D02*
X122688000Y-76410000D01*
X118250000Y-92251315D02*
X122688000Y-87813315D01*
X122688000Y-76410000D02*
X121259600Y-74981600D01*
X118250000Y-93170000D02*
X118250000Y-92251315D01*
X116359000Y-95061000D02*
X118250000Y-93170000D01*
X107981000Y-95061000D02*
X116359000Y-95061000D01*
X121259600Y-74981600D02*
X121259600Y-73558400D01*
X84480400Y-87407200D02*
X88177400Y-91104200D01*
X90250000Y-91104200D02*
X95269800Y-91104200D01*
X95269800Y-91104200D02*
X96570800Y-92405200D01*
X84480400Y-87407200D02*
X74453200Y-87407200D01*
X74453200Y-87407200D02*
X74422000Y-87376000D01*
X75121000Y-61139000D02*
X76272000Y-62290000D01*
X76272000Y-62290000D02*
X76272000Y-85526000D01*
X76272000Y-85526000D02*
X74422000Y-87376000D01*
D31*
%TO.N,+3V3*%
X114300000Y-89662000D02*
X114300000Y-88900000D01*
X114300000Y-88900000D02*
X113639600Y-88239600D01*
X113639600Y-88239600D02*
X113639600Y-86258400D01*
D30*
%TO.N,GND*%
X103479600Y-86258400D02*
X106883200Y-89662000D01*
X106883200Y-89662000D02*
X109220000Y-89662000D01*
D29*
%TO.N,GNDA*%
X101559360Y-60681220D02*
X101559360Y-67915989D01*
D30*
%TO.N,GND*%
X45645000Y-79974000D02*
X52145000Y-79974000D01*
X51866800Y-89916000D02*
X51866800Y-86195800D01*
X51866800Y-86195800D02*
X45645000Y-79974000D01*
D29*
%TO.N,GNDA*%
X55753000Y-92456000D02*
X51866800Y-92456000D01*
X58293000Y-92456000D02*
X55753000Y-92456000D01*
X60833000Y-92456000D02*
X58293000Y-92456000D01*
X63398400Y-92456000D02*
X60833000Y-92456000D01*
X65938400Y-92456000D02*
X63398400Y-92456000D01*
%TD*%
M02*
