M48
; DRILL file {KiCad 9.0.2-rc1} date 2025-05-07T10:45:08+0100
; FORMAT={-:-/ absolute / metric / decimal}
; #@! TF.CreationDate,2025-05-07T10:45:08+01:00
; #@! TF.GenerationSoftware,Kicad,Pcbnew,9.0.2-rc1
; #@! TF.FileFunction,MixedPlating,1,4
FMAT,2
METRIC
; #@! TA.AperFunction,Plated,PTH,ViaDrill
T1C0.300
; #@! TA.AperFunction,Plated,PTH,ComponentDrill
T2C0.800
; #@! TA.AperFunction,Plated,PTH,ComponentDrill
T3C0.950
; #@! TA.AperFunction,Plated,PTH,ComponentDrill
T4C1.000
; #@! TA.AperFunction,Plated,PTH,ComponentDrill
T5C1.100
; #@! TA.AperFunction,Plated,PTH,ComponentDrill
T6C1.298
; #@! TA.AperFunction,NonPlated,NPTH,ComponentDrill
T7C1.200
%
G90
G05
T1
X64.27Y-81.36
X66.04Y-78.74
T2
X63.129Y-69.85
X68.129Y-69.85
X70.68Y-82.31
X70.68Y-92.47
X75.121Y-58.599
X75.121Y-61.139
X75.121Y-63.679
X75.121Y-66.219
X75.121Y-68.759
X75.121Y-71.299
X75.121Y-73.839
X75.121Y-76.379
X75.121Y-78.919
X77.661Y-79.129
X80.201Y-79.129
X82.741Y-79.129
X85.281Y-79.129
X87.821Y-79.129
X88.011Y-84.887
X88.011Y-92.507
X90.361Y-58.599
X90.361Y-61.139
X90.361Y-63.679
X90.361Y-66.219
X90.361Y-68.759
X90.361Y-71.299
X90.361Y-73.839
X90.361Y-76.379
X90.361Y-78.919
X91.999Y-89.002
X94.625Y-69.85
X99.625Y-69.85
X99.8Y-76.11
X99.8Y-86.27
X102.159Y-89.002
X103.48Y-73.558
X103.48Y-86.258
X106.02Y-73.558
X106.02Y-86.258
X108.56Y-73.558
X108.56Y-86.258
X111.1Y-73.558
X111.1Y-86.258
X113.64Y-73.558
X113.64Y-86.258
X116.18Y-73.558
X116.18Y-86.258
X117.805Y-64.494
X117.805Y-69.494
X118.72Y-73.558
X118.72Y-86.258
X121.26Y-73.558
X121.26Y-86.258
T3
X51.388Y-59.256
X51.388Y-67.056
X53.888Y-59.256
X53.888Y-67.056
X56.388Y-59.256
X56.388Y-67.056
X108.578Y-59.256
X111.078Y-59.256
X113.578Y-59.256
X116.078Y-59.256
T4
X51.867Y-89.916
X51.867Y-92.456
X55.753Y-87.376
X55.753Y-89.916
X55.753Y-92.456
X58.293Y-87.376
X58.293Y-89.916
X58.293Y-92.456
X60.833Y-87.376
X60.833Y-89.916
X60.833Y-92.456
X63.398Y-87.376
X63.398Y-89.916
X63.398Y-92.456
X65.938Y-87.376
X65.938Y-89.916
X65.938Y-92.456
X74.422Y-84.836
X74.422Y-87.376
X74.422Y-89.916
X74.422Y-92.456
X84.48Y-84.867
X84.48Y-87.407
X84.48Y-89.947
X84.48Y-92.487
X93.78Y-92.86
X94.92Y-79.58
X94.92Y-82.12
X94.92Y-84.66
X96.32Y-92.86
X98.86Y-92.86
X101.4Y-92.86
X106.68Y-93.76
X109.22Y-89.662
X109.22Y-93.76
X111.76Y-89.662
X111.76Y-93.76
X114.3Y-89.662
X114.3Y-93.76
X121.158Y-62.687
X121.158Y-65.227
X121.158Y-67.767
T5
X45.645Y-75.474
X45.645Y-79.974
X52.145Y-75.474
X52.145Y-79.974
T6
X63.607Y-60.681
X68.605Y-60.681
X96.561Y-60.681
X101.559Y-60.681
T7
X49.788Y-61.256
X49.788Y-69.056
X106.978Y-61.256
M30
