%TF.GenerationSoftware,KiCad,Pcbnew,9.0.2-rc1*%
%TF.CreationDate,2025-05-07T10:44:18+01:00*%
%TF.ProjectId,Astro Droid BodyNeck,41737472-6f20-4447-926f-696420426f64,rev?*%
%TF.SameCoordinates,Original*%
%TF.FileFunction,Legend,Bot*%
%TF.FilePolarity,Positive*%
%FSLAX46Y46*%
G04 Gerber Fmt 4.6, Leading zero omitted, Abs format (unit mm)*
G04 Created by KiCad (PCBNEW 9.0.2-rc1) date 2025-05-07 10:44:18*
%MOMM*%
%LPD*%
G01*
G04 APERTURE LIST*
%ADD10C,0.100000*%
G04 APERTURE END LIST*
D10*
X121545639Y-78225001D02*
X121374211Y-78282143D01*
X121374211Y-78282143D02*
X121088496Y-78282143D01*
X121088496Y-78282143D02*
X120974211Y-78225001D01*
X120974211Y-78225001D02*
X120917068Y-78167858D01*
X120917068Y-78167858D02*
X120859925Y-78053572D01*
X120859925Y-78053572D02*
X120859925Y-77939286D01*
X120859925Y-77939286D02*
X120917068Y-77825001D01*
X120917068Y-77825001D02*
X120974211Y-77767858D01*
X120974211Y-77767858D02*
X121088496Y-77710715D01*
X121088496Y-77710715D02*
X121317068Y-77653572D01*
X121317068Y-77653572D02*
X121431353Y-77596429D01*
X121431353Y-77596429D02*
X121488496Y-77539286D01*
X121488496Y-77539286D02*
X121545639Y-77425001D01*
X121545639Y-77425001D02*
X121545639Y-77310715D01*
X121545639Y-77310715D02*
X121488496Y-77196429D01*
X121488496Y-77196429D02*
X121431353Y-77139286D01*
X121431353Y-77139286D02*
X121317068Y-77082143D01*
X121317068Y-77082143D02*
X121031353Y-77082143D01*
X121031353Y-77082143D02*
X120859925Y-77139286D01*
X120517068Y-77482143D02*
X120059925Y-77482143D01*
X120345639Y-77082143D02*
X120345639Y-78110715D01*
X120345639Y-78110715D02*
X120288496Y-78225001D01*
X120288496Y-78225001D02*
X120174211Y-78282143D01*
X120174211Y-78282143D02*
X120059925Y-78282143D01*
X119202782Y-78225001D02*
X119317068Y-78282143D01*
X119317068Y-78282143D02*
X119545640Y-78282143D01*
X119545640Y-78282143D02*
X119659925Y-78225001D01*
X119659925Y-78225001D02*
X119717068Y-78110715D01*
X119717068Y-78110715D02*
X119717068Y-77653572D01*
X119717068Y-77653572D02*
X119659925Y-77539286D01*
X119659925Y-77539286D02*
X119545640Y-77482143D01*
X119545640Y-77482143D02*
X119317068Y-77482143D01*
X119317068Y-77482143D02*
X119202782Y-77539286D01*
X119202782Y-77539286D02*
X119145640Y-77653572D01*
X119145640Y-77653572D02*
X119145640Y-77767858D01*
X119145640Y-77767858D02*
X119717068Y-77882143D01*
X118631354Y-77482143D02*
X118631354Y-78682143D01*
X118631354Y-77539286D02*
X118517069Y-77482143D01*
X118517069Y-77482143D02*
X118288497Y-77482143D01*
X118288497Y-77482143D02*
X118174211Y-77539286D01*
X118174211Y-77539286D02*
X118117069Y-77596429D01*
X118117069Y-77596429D02*
X118059926Y-77710715D01*
X118059926Y-77710715D02*
X118059926Y-78053572D01*
X118059926Y-78053572D02*
X118117069Y-78167858D01*
X118117069Y-78167858D02*
X118174211Y-78225001D01*
X118174211Y-78225001D02*
X118288497Y-78282143D01*
X118288497Y-78282143D02*
X118517069Y-78282143D01*
X118517069Y-78282143D02*
X118631354Y-78225001D01*
X117545640Y-77482143D02*
X117545640Y-78682143D01*
X117545640Y-77539286D02*
X117431355Y-77482143D01*
X117431355Y-77482143D02*
X117202783Y-77482143D01*
X117202783Y-77482143D02*
X117088497Y-77539286D01*
X117088497Y-77539286D02*
X117031355Y-77596429D01*
X117031355Y-77596429D02*
X116974212Y-77710715D01*
X116974212Y-77710715D02*
X116974212Y-78053572D01*
X116974212Y-78053572D02*
X117031355Y-78167858D01*
X117031355Y-78167858D02*
X117088497Y-78225001D01*
X117088497Y-78225001D02*
X117202783Y-78282143D01*
X117202783Y-78282143D02*
X117431355Y-78282143D01*
X117431355Y-78282143D02*
X117545640Y-78225001D01*
X116002783Y-78225001D02*
X116117069Y-78282143D01*
X116117069Y-78282143D02*
X116345641Y-78282143D01*
X116345641Y-78282143D02*
X116459926Y-78225001D01*
X116459926Y-78225001D02*
X116517069Y-78110715D01*
X116517069Y-78110715D02*
X116517069Y-77653572D01*
X116517069Y-77653572D02*
X116459926Y-77539286D01*
X116459926Y-77539286D02*
X116345641Y-77482143D01*
X116345641Y-77482143D02*
X116117069Y-77482143D01*
X116117069Y-77482143D02*
X116002783Y-77539286D01*
X116002783Y-77539286D02*
X115945641Y-77653572D01*
X115945641Y-77653572D02*
X115945641Y-77767858D01*
X115945641Y-77767858D02*
X116517069Y-77882143D01*
X115431355Y-78282143D02*
X115431355Y-77482143D01*
X115431355Y-77710715D02*
X115374212Y-77596429D01*
X115374212Y-77596429D02*
X115317070Y-77539286D01*
X115317070Y-77539286D02*
X115202784Y-77482143D01*
X115202784Y-77482143D02*
X115088498Y-77482143D01*
X113259927Y-78282143D02*
X113259927Y-77653572D01*
X113259927Y-77653572D02*
X113317069Y-77539286D01*
X113317069Y-77539286D02*
X113431355Y-77482143D01*
X113431355Y-77482143D02*
X113659927Y-77482143D01*
X113659927Y-77482143D02*
X113774212Y-77539286D01*
X113259927Y-78225001D02*
X113374212Y-78282143D01*
X113374212Y-78282143D02*
X113659927Y-78282143D01*
X113659927Y-78282143D02*
X113774212Y-78225001D01*
X113774212Y-78225001D02*
X113831355Y-78110715D01*
X113831355Y-78110715D02*
X113831355Y-77996429D01*
X113831355Y-77996429D02*
X113774212Y-77882143D01*
X113774212Y-77882143D02*
X113659927Y-77825001D01*
X113659927Y-77825001D02*
X113374212Y-77825001D01*
X113374212Y-77825001D02*
X113259927Y-77767858D01*
X112688498Y-77482143D02*
X112688498Y-78282143D01*
X112688498Y-77596429D02*
X112631355Y-77539286D01*
X112631355Y-77539286D02*
X112517070Y-77482143D01*
X112517070Y-77482143D02*
X112345641Y-77482143D01*
X112345641Y-77482143D02*
X112231355Y-77539286D01*
X112231355Y-77539286D02*
X112174213Y-77653572D01*
X112174213Y-77653572D02*
X112174213Y-78282143D01*
X111088499Y-78282143D02*
X111088499Y-77082143D01*
X111088499Y-78225001D02*
X111202784Y-78282143D01*
X111202784Y-78282143D02*
X111431356Y-78282143D01*
X111431356Y-78282143D02*
X111545641Y-78225001D01*
X111545641Y-78225001D02*
X111602784Y-78167858D01*
X111602784Y-78167858D02*
X111659927Y-78053572D01*
X111659927Y-78053572D02*
X111659927Y-77710715D01*
X111659927Y-77710715D02*
X111602784Y-77596429D01*
X111602784Y-77596429D02*
X111545641Y-77539286D01*
X111545641Y-77539286D02*
X111431356Y-77482143D01*
X111431356Y-77482143D02*
X111202784Y-77482143D01*
X111202784Y-77482143D02*
X111088499Y-77539286D01*
X109659927Y-78225001D02*
X109488499Y-78282143D01*
X109488499Y-78282143D02*
X109202784Y-78282143D01*
X109202784Y-78282143D02*
X109088499Y-78225001D01*
X109088499Y-78225001D02*
X109031356Y-78167858D01*
X109031356Y-78167858D02*
X108974213Y-78053572D01*
X108974213Y-78053572D02*
X108974213Y-77939286D01*
X108974213Y-77939286D02*
X109031356Y-77825001D01*
X109031356Y-77825001D02*
X109088499Y-77767858D01*
X109088499Y-77767858D02*
X109202784Y-77710715D01*
X109202784Y-77710715D02*
X109431356Y-77653572D01*
X109431356Y-77653572D02*
X109545641Y-77596429D01*
X109545641Y-77596429D02*
X109602784Y-77539286D01*
X109602784Y-77539286D02*
X109659927Y-77425001D01*
X109659927Y-77425001D02*
X109659927Y-77310715D01*
X109659927Y-77310715D02*
X109602784Y-77196429D01*
X109602784Y-77196429D02*
X109545641Y-77139286D01*
X109545641Y-77139286D02*
X109431356Y-77082143D01*
X109431356Y-77082143D02*
X109145641Y-77082143D01*
X109145641Y-77082143D02*
X108974213Y-77139286D01*
X108002784Y-78225001D02*
X108117070Y-78282143D01*
X108117070Y-78282143D02*
X108345642Y-78282143D01*
X108345642Y-78282143D02*
X108459927Y-78225001D01*
X108459927Y-78225001D02*
X108517070Y-78110715D01*
X108517070Y-78110715D02*
X108517070Y-77653572D01*
X108517070Y-77653572D02*
X108459927Y-77539286D01*
X108459927Y-77539286D02*
X108345642Y-77482143D01*
X108345642Y-77482143D02*
X108117070Y-77482143D01*
X108117070Y-77482143D02*
X108002784Y-77539286D01*
X108002784Y-77539286D02*
X107945642Y-77653572D01*
X107945642Y-77653572D02*
X107945642Y-77767858D01*
X107945642Y-77767858D02*
X108517070Y-77882143D01*
X107431356Y-78282143D02*
X107431356Y-77482143D01*
X107431356Y-77710715D02*
X107374213Y-77596429D01*
X107374213Y-77596429D02*
X107317071Y-77539286D01*
X107317071Y-77539286D02*
X107202785Y-77482143D01*
X107202785Y-77482143D02*
X107088499Y-77482143D01*
X106802785Y-77482143D02*
X106517071Y-78282143D01*
X106517071Y-78282143D02*
X106231356Y-77482143D01*
X105602785Y-78282143D02*
X105717070Y-78225001D01*
X105717070Y-78225001D02*
X105774213Y-78167858D01*
X105774213Y-78167858D02*
X105831356Y-78053572D01*
X105831356Y-78053572D02*
X105831356Y-77710715D01*
X105831356Y-77710715D02*
X105774213Y-77596429D01*
X105774213Y-77596429D02*
X105717070Y-77539286D01*
X105717070Y-77539286D02*
X105602785Y-77482143D01*
X105602785Y-77482143D02*
X105431356Y-77482143D01*
X105431356Y-77482143D02*
X105317070Y-77539286D01*
X105317070Y-77539286D02*
X105259928Y-77596429D01*
X105259928Y-77596429D02*
X105202785Y-77710715D01*
X105202785Y-77710715D02*
X105202785Y-78053572D01*
X105202785Y-78053572D02*
X105259928Y-78167858D01*
X105259928Y-78167858D02*
X105317070Y-78225001D01*
X105317070Y-78225001D02*
X105431356Y-78282143D01*
X105431356Y-78282143D02*
X105602785Y-78282143D01*
X103088499Y-78282143D02*
X103488499Y-77710715D01*
X103774213Y-78282143D02*
X103774213Y-77082143D01*
X103774213Y-77082143D02*
X103317070Y-77082143D01*
X103317070Y-77082143D02*
X103202785Y-77139286D01*
X103202785Y-77139286D02*
X103145642Y-77196429D01*
X103145642Y-77196429D02*
X103088499Y-77310715D01*
X103088499Y-77310715D02*
X103088499Y-77482143D01*
X103088499Y-77482143D02*
X103145642Y-77596429D01*
X103145642Y-77596429D02*
X103202785Y-77653572D01*
X103202785Y-77653572D02*
X103317070Y-77710715D01*
X103317070Y-77710715D02*
X103774213Y-77710715D01*
X102574213Y-78282143D02*
X102574213Y-77082143D01*
X102574213Y-77082143D02*
X102117070Y-77082143D01*
X102117070Y-77082143D02*
X102002785Y-77139286D01*
X102002785Y-77139286D02*
X101945642Y-77196429D01*
X101945642Y-77196429D02*
X101888499Y-77310715D01*
X101888499Y-77310715D02*
X101888499Y-77482143D01*
X101888499Y-77482143D02*
X101945642Y-77596429D01*
X101945642Y-77596429D02*
X102002785Y-77653572D01*
X102002785Y-77653572D02*
X102117070Y-77710715D01*
X102117070Y-77710715D02*
X102574213Y-77710715D01*
X101431356Y-77196429D02*
X101374213Y-77139286D01*
X101374213Y-77139286D02*
X101259928Y-77082143D01*
X101259928Y-77082143D02*
X100974213Y-77082143D01*
X100974213Y-77082143D02*
X100859928Y-77139286D01*
X100859928Y-77139286D02*
X100802785Y-77196429D01*
X100802785Y-77196429D02*
X100745642Y-77310715D01*
X100745642Y-77310715D02*
X100745642Y-77425001D01*
X100745642Y-77425001D02*
X100802785Y-77596429D01*
X100802785Y-77596429D02*
X101488499Y-78282143D01*
X101488499Y-78282143D02*
X100745642Y-78282143D01*
X100002785Y-77082143D02*
X99888499Y-77082143D01*
X99888499Y-77082143D02*
X99774213Y-77139286D01*
X99774213Y-77139286D02*
X99717071Y-77196429D01*
X99717071Y-77196429D02*
X99659928Y-77310715D01*
X99659928Y-77310715D02*
X99602785Y-77539286D01*
X99602785Y-77539286D02*
X99602785Y-77825001D01*
X99602785Y-77825001D02*
X99659928Y-78053572D01*
X99659928Y-78053572D02*
X99717071Y-78167858D01*
X99717071Y-78167858D02*
X99774213Y-78225001D01*
X99774213Y-78225001D02*
X99888499Y-78282143D01*
X99888499Y-78282143D02*
X100002785Y-78282143D01*
X100002785Y-78282143D02*
X100117071Y-78225001D01*
X100117071Y-78225001D02*
X100174213Y-78167858D01*
X100174213Y-78167858D02*
X100231356Y-78053572D01*
X100231356Y-78053572D02*
X100288499Y-77825001D01*
X100288499Y-77825001D02*
X100288499Y-77539286D01*
X100288499Y-77539286D02*
X100231356Y-77310715D01*
X100231356Y-77310715D02*
X100174213Y-77196429D01*
X100174213Y-77196429D02*
X100117071Y-77139286D01*
X100117071Y-77139286D02*
X100002785Y-77082143D01*
X98574214Y-77482143D02*
X98574214Y-78282143D01*
X98859928Y-77025001D02*
X99145642Y-77882143D01*
X99145642Y-77882143D02*
X98402785Y-77882143D01*
X97717071Y-77082143D02*
X97602785Y-77082143D01*
X97602785Y-77082143D02*
X97488499Y-77139286D01*
X97488499Y-77139286D02*
X97431357Y-77196429D01*
X97431357Y-77196429D02*
X97374214Y-77310715D01*
X97374214Y-77310715D02*
X97317071Y-77539286D01*
X97317071Y-77539286D02*
X97317071Y-77825001D01*
X97317071Y-77825001D02*
X97374214Y-78053572D01*
X97374214Y-78053572D02*
X97431357Y-78167858D01*
X97431357Y-78167858D02*
X97488499Y-78225001D01*
X97488499Y-78225001D02*
X97602785Y-78282143D01*
X97602785Y-78282143D02*
X97717071Y-78282143D01*
X97717071Y-78282143D02*
X97831357Y-78225001D01*
X97831357Y-78225001D02*
X97888499Y-78167858D01*
X97888499Y-78167858D02*
X97945642Y-78053572D01*
X97945642Y-78053572D02*
X98002785Y-77825001D01*
X98002785Y-77825001D02*
X98002785Y-77539286D01*
X98002785Y-77539286D02*
X97945642Y-77310715D01*
X97945642Y-77310715D02*
X97888499Y-77196429D01*
X97888499Y-77196429D02*
X97831357Y-77139286D01*
X97831357Y-77139286D02*
X97717071Y-77082143D01*
X121145639Y-80671219D02*
X121202782Y-80614076D01*
X121202782Y-80614076D02*
X121317068Y-80442648D01*
X121317068Y-80442648D02*
X121374211Y-80328362D01*
X121374211Y-80328362D02*
X121431353Y-80156934D01*
X121431353Y-80156934D02*
X121488496Y-79871219D01*
X121488496Y-79871219D02*
X121488496Y-79642648D01*
X121488496Y-79642648D02*
X121431353Y-79356934D01*
X121431353Y-79356934D02*
X121374211Y-79185505D01*
X121374211Y-79185505D02*
X121317068Y-79071219D01*
X121317068Y-79071219D02*
X121202782Y-78899791D01*
X121202782Y-78899791D02*
X121145639Y-78842648D01*
X120002782Y-80099791D02*
X120059925Y-80156934D01*
X120059925Y-80156934D02*
X120231353Y-80214076D01*
X120231353Y-80214076D02*
X120345639Y-80214076D01*
X120345639Y-80214076D02*
X120517068Y-80156934D01*
X120517068Y-80156934D02*
X120631353Y-80042648D01*
X120631353Y-80042648D02*
X120688496Y-79928362D01*
X120688496Y-79928362D02*
X120745639Y-79699791D01*
X120745639Y-79699791D02*
X120745639Y-79528362D01*
X120745639Y-79528362D02*
X120688496Y-79299791D01*
X120688496Y-79299791D02*
X120631353Y-79185505D01*
X120631353Y-79185505D02*
X120517068Y-79071219D01*
X120517068Y-79071219D02*
X120345639Y-79014076D01*
X120345639Y-79014076D02*
X120231353Y-79014076D01*
X120231353Y-79014076D02*
X120059925Y-79071219D01*
X120059925Y-79071219D02*
X120002782Y-79128362D01*
X119602782Y-80671219D02*
X119545639Y-80614076D01*
X119545639Y-80614076D02*
X119431353Y-80442648D01*
X119431353Y-80442648D02*
X119374211Y-80328362D01*
X119374211Y-80328362D02*
X119317068Y-80156934D01*
X119317068Y-80156934D02*
X119259925Y-79871219D01*
X119259925Y-79871219D02*
X119259925Y-79642648D01*
X119259925Y-79642648D02*
X119317068Y-79356934D01*
X119317068Y-79356934D02*
X119374211Y-79185505D01*
X119374211Y-79185505D02*
X119431353Y-79071219D01*
X119431353Y-79071219D02*
X119545639Y-78899791D01*
X119545639Y-78899791D02*
X119602782Y-78842648D01*
X117831353Y-79128362D02*
X117774210Y-79071219D01*
X117774210Y-79071219D02*
X117659925Y-79014076D01*
X117659925Y-79014076D02*
X117374210Y-79014076D01*
X117374210Y-79014076D02*
X117259925Y-79071219D01*
X117259925Y-79071219D02*
X117202782Y-79128362D01*
X117202782Y-79128362D02*
X117145639Y-79242648D01*
X117145639Y-79242648D02*
X117145639Y-79356934D01*
X117145639Y-79356934D02*
X117202782Y-79528362D01*
X117202782Y-79528362D02*
X117888496Y-80214076D01*
X117888496Y-80214076D02*
X117145639Y-80214076D01*
X116402782Y-79014076D02*
X116288496Y-79014076D01*
X116288496Y-79014076D02*
X116174210Y-79071219D01*
X116174210Y-79071219D02*
X116117068Y-79128362D01*
X116117068Y-79128362D02*
X116059925Y-79242648D01*
X116059925Y-79242648D02*
X116002782Y-79471219D01*
X116002782Y-79471219D02*
X116002782Y-79756934D01*
X116002782Y-79756934D02*
X116059925Y-79985505D01*
X116059925Y-79985505D02*
X116117068Y-80099791D01*
X116117068Y-80099791D02*
X116174210Y-80156934D01*
X116174210Y-80156934D02*
X116288496Y-80214076D01*
X116288496Y-80214076D02*
X116402782Y-80214076D01*
X116402782Y-80214076D02*
X116517068Y-80156934D01*
X116517068Y-80156934D02*
X116574210Y-80099791D01*
X116574210Y-80099791D02*
X116631353Y-79985505D01*
X116631353Y-79985505D02*
X116688496Y-79756934D01*
X116688496Y-79756934D02*
X116688496Y-79471219D01*
X116688496Y-79471219D02*
X116631353Y-79242648D01*
X116631353Y-79242648D02*
X116574210Y-79128362D01*
X116574210Y-79128362D02*
X116517068Y-79071219D01*
X116517068Y-79071219D02*
X116402782Y-79014076D01*
X115545639Y-79128362D02*
X115488496Y-79071219D01*
X115488496Y-79071219D02*
X115374211Y-79014076D01*
X115374211Y-79014076D02*
X115088496Y-79014076D01*
X115088496Y-79014076D02*
X114974211Y-79071219D01*
X114974211Y-79071219D02*
X114917068Y-79128362D01*
X114917068Y-79128362D02*
X114859925Y-79242648D01*
X114859925Y-79242648D02*
X114859925Y-79356934D01*
X114859925Y-79356934D02*
X114917068Y-79528362D01*
X114917068Y-79528362D02*
X115602782Y-80214076D01*
X115602782Y-80214076D02*
X114859925Y-80214076D01*
X113774211Y-79014076D02*
X114345639Y-79014076D01*
X114345639Y-79014076D02*
X114402782Y-79585505D01*
X114402782Y-79585505D02*
X114345639Y-79528362D01*
X114345639Y-79528362D02*
X114231354Y-79471219D01*
X114231354Y-79471219D02*
X113945639Y-79471219D01*
X113945639Y-79471219D02*
X113831354Y-79528362D01*
X113831354Y-79528362D02*
X113774211Y-79585505D01*
X113774211Y-79585505D02*
X113717068Y-79699791D01*
X113717068Y-79699791D02*
X113717068Y-79985505D01*
X113717068Y-79985505D02*
X113774211Y-80099791D01*
X113774211Y-80099791D02*
X113831354Y-80156934D01*
X113831354Y-80156934D02*
X113945639Y-80214076D01*
X113945639Y-80214076D02*
X114231354Y-80214076D01*
X114231354Y-80214076D02*
X114345639Y-80156934D01*
X114345639Y-80156934D02*
X114402782Y-80099791D01*
X112288496Y-80214076D02*
X112288496Y-79014076D01*
X112288496Y-79014076D02*
X112002782Y-79014076D01*
X112002782Y-79014076D02*
X111831353Y-79071219D01*
X111831353Y-79071219D02*
X111717068Y-79185505D01*
X111717068Y-79185505D02*
X111659925Y-79299791D01*
X111659925Y-79299791D02*
X111602782Y-79528362D01*
X111602782Y-79528362D02*
X111602782Y-79699791D01*
X111602782Y-79699791D02*
X111659925Y-79928362D01*
X111659925Y-79928362D02*
X111717068Y-80042648D01*
X111717068Y-80042648D02*
X111831353Y-80156934D01*
X111831353Y-80156934D02*
X112002782Y-80214076D01*
X112002782Y-80214076D02*
X112288496Y-80214076D01*
X111088496Y-80214076D02*
X111088496Y-79414076D01*
X111088496Y-79642648D02*
X111031353Y-79528362D01*
X111031353Y-79528362D02*
X110974211Y-79471219D01*
X110974211Y-79471219D02*
X110859925Y-79414076D01*
X110859925Y-79414076D02*
X110745639Y-79414076D01*
X109088496Y-79014076D02*
X109088496Y-79871219D01*
X109088496Y-79871219D02*
X109145639Y-80042648D01*
X109145639Y-80042648D02*
X109259925Y-80156934D01*
X109259925Y-80156934D02*
X109431353Y-80214076D01*
X109431353Y-80214076D02*
X109545639Y-80214076D01*
X108345639Y-80214076D02*
X108459924Y-80156934D01*
X108459924Y-80156934D02*
X108517067Y-80099791D01*
X108517067Y-80099791D02*
X108574210Y-79985505D01*
X108574210Y-79985505D02*
X108574210Y-79642648D01*
X108574210Y-79642648D02*
X108517067Y-79528362D01*
X108517067Y-79528362D02*
X108459924Y-79471219D01*
X108459924Y-79471219D02*
X108345639Y-79414076D01*
X108345639Y-79414076D02*
X108174210Y-79414076D01*
X108174210Y-79414076D02*
X108059924Y-79471219D01*
X108059924Y-79471219D02*
X108002782Y-79528362D01*
X108002782Y-79528362D02*
X107945639Y-79642648D01*
X107945639Y-79642648D02*
X107945639Y-79985505D01*
X107945639Y-79985505D02*
X108002782Y-80099791D01*
X108002782Y-80099791D02*
X108059924Y-80156934D01*
X108059924Y-80156934D02*
X108174210Y-80214076D01*
X108174210Y-80214076D02*
X108345639Y-80214076D01*
X107431353Y-79414076D02*
X107431353Y-80214076D01*
X107431353Y-79528362D02*
X107374210Y-79471219D01*
X107374210Y-79471219D02*
X107259925Y-79414076D01*
X107259925Y-79414076D02*
X107088496Y-79414076D01*
X107088496Y-79414076D02*
X106974210Y-79471219D01*
X106974210Y-79471219D02*
X106917068Y-79585505D01*
X106917068Y-79585505D02*
X106917068Y-80214076D01*
X105431353Y-79585505D02*
X105031353Y-79585505D01*
X104859925Y-80214076D02*
X105431353Y-80214076D01*
X105431353Y-80214076D02*
X105431353Y-79014076D01*
X105431353Y-79014076D02*
X104859925Y-79014076D01*
X104402782Y-79871219D02*
X103831354Y-79871219D01*
X104517068Y-80214076D02*
X104117068Y-79014076D01*
X104117068Y-79014076D02*
X103717068Y-80214076D01*
X101831354Y-80214076D02*
X102402782Y-80214076D01*
X102402782Y-80214076D02*
X102402782Y-79014076D01*
X101602782Y-79414076D02*
X101145639Y-79414076D01*
X101431353Y-79014076D02*
X101431353Y-80042648D01*
X101431353Y-80042648D02*
X101374210Y-80156934D01*
X101374210Y-80156934D02*
X101259925Y-80214076D01*
X101259925Y-80214076D02*
X101145639Y-80214076D01*
X100231354Y-80214076D02*
X100231354Y-79014076D01*
X100231354Y-80156934D02*
X100345639Y-80214076D01*
X100345639Y-80214076D02*
X100574211Y-80214076D01*
X100574211Y-80214076D02*
X100688496Y-80156934D01*
X100688496Y-80156934D02*
X100745639Y-80099791D01*
X100745639Y-80099791D02*
X100802782Y-79985505D01*
X100802782Y-79985505D02*
X100802782Y-79642648D01*
X100802782Y-79642648D02*
X100745639Y-79528362D01*
X100745639Y-79528362D02*
X100688496Y-79471219D01*
X100688496Y-79471219D02*
X100574211Y-79414076D01*
X100574211Y-79414076D02*
X100345639Y-79414076D01*
X100345639Y-79414076D02*
X100231354Y-79471219D01*
X121317068Y-81460295D02*
X121431353Y-81403152D01*
X121431353Y-81403152D02*
X121488496Y-81346009D01*
X121488496Y-81346009D02*
X121545639Y-81231724D01*
X121545639Y-81231724D02*
X121545639Y-81174581D01*
X121545639Y-81174581D02*
X121488496Y-81060295D01*
X121488496Y-81060295D02*
X121431353Y-81003152D01*
X121431353Y-81003152D02*
X121317068Y-80946009D01*
X121317068Y-80946009D02*
X121088496Y-80946009D01*
X121088496Y-80946009D02*
X120974211Y-81003152D01*
X120974211Y-81003152D02*
X120917068Y-81060295D01*
X120917068Y-81060295D02*
X120859925Y-81174581D01*
X120859925Y-81174581D02*
X120859925Y-81231724D01*
X120859925Y-81231724D02*
X120917068Y-81346009D01*
X120917068Y-81346009D02*
X120974211Y-81403152D01*
X120974211Y-81403152D02*
X121088496Y-81460295D01*
X121088496Y-81460295D02*
X121317068Y-81460295D01*
X121317068Y-81460295D02*
X121431353Y-81517438D01*
X121431353Y-81517438D02*
X121488496Y-81574581D01*
X121488496Y-81574581D02*
X121545639Y-81688867D01*
X121545639Y-81688867D02*
X121545639Y-81917438D01*
X121545639Y-81917438D02*
X121488496Y-82031724D01*
X121488496Y-82031724D02*
X121431353Y-82088867D01*
X121431353Y-82088867D02*
X121317068Y-82146009D01*
X121317068Y-82146009D02*
X121088496Y-82146009D01*
X121088496Y-82146009D02*
X120974211Y-82088867D01*
X120974211Y-82088867D02*
X120917068Y-82031724D01*
X120917068Y-82031724D02*
X120859925Y-81917438D01*
X120859925Y-81917438D02*
X120859925Y-81688867D01*
X120859925Y-81688867D02*
X120917068Y-81574581D01*
X120917068Y-81574581D02*
X120974211Y-81517438D01*
X120974211Y-81517438D02*
X121088496Y-81460295D01*
X120117068Y-80946009D02*
X120002782Y-80946009D01*
X120002782Y-80946009D02*
X119888496Y-81003152D01*
X119888496Y-81003152D02*
X119831354Y-81060295D01*
X119831354Y-81060295D02*
X119774211Y-81174581D01*
X119774211Y-81174581D02*
X119717068Y-81403152D01*
X119717068Y-81403152D02*
X119717068Y-81688867D01*
X119717068Y-81688867D02*
X119774211Y-81917438D01*
X119774211Y-81917438D02*
X119831354Y-82031724D01*
X119831354Y-82031724D02*
X119888496Y-82088867D01*
X119888496Y-82088867D02*
X120002782Y-82146009D01*
X120002782Y-82146009D02*
X120117068Y-82146009D01*
X120117068Y-82146009D02*
X120231354Y-82088867D01*
X120231354Y-82088867D02*
X120288496Y-82031724D01*
X120288496Y-82031724D02*
X120345639Y-81917438D01*
X120345639Y-81917438D02*
X120402782Y-81688867D01*
X120402782Y-81688867D02*
X120402782Y-81403152D01*
X120402782Y-81403152D02*
X120345639Y-81174581D01*
X120345639Y-81174581D02*
X120288496Y-81060295D01*
X120288496Y-81060295D02*
X120231354Y-81003152D01*
X120231354Y-81003152D02*
X120117068Y-80946009D01*
X119317068Y-82146009D02*
X118688497Y-81346009D01*
X119317068Y-81346009D02*
X118688497Y-82146009D01*
X117717068Y-81346009D02*
X117717068Y-82146009D01*
X118002782Y-80888867D02*
X118288496Y-81746009D01*
X118288496Y-81746009D02*
X117545639Y-81746009D01*
X116859925Y-80946009D02*
X116745639Y-80946009D01*
X116745639Y-80946009D02*
X116631353Y-81003152D01*
X116631353Y-81003152D02*
X116574211Y-81060295D01*
X116574211Y-81060295D02*
X116517068Y-81174581D01*
X116517068Y-81174581D02*
X116459925Y-81403152D01*
X116459925Y-81403152D02*
X116459925Y-81688867D01*
X116459925Y-81688867D02*
X116517068Y-81917438D01*
X116517068Y-81917438D02*
X116574211Y-82031724D01*
X116574211Y-82031724D02*
X116631353Y-82088867D01*
X116631353Y-82088867D02*
X116745639Y-82146009D01*
X116745639Y-82146009D02*
X116859925Y-82146009D01*
X116859925Y-82146009D02*
X116974211Y-82088867D01*
X116974211Y-82088867D02*
X117031353Y-82031724D01*
X117031353Y-82031724D02*
X117088496Y-81917438D01*
X117088496Y-81917438D02*
X117145639Y-81688867D01*
X117145639Y-81688867D02*
X117145639Y-81403152D01*
X117145639Y-81403152D02*
X117088496Y-81174581D01*
X117088496Y-81174581D02*
X117031353Y-81060295D01*
X117031353Y-81060295D02*
X116974211Y-81003152D01*
X116974211Y-81003152D02*
X116859925Y-80946009D01*
X115945639Y-82146009D02*
X115945639Y-81346009D01*
X115945639Y-81460295D02*
X115888496Y-81403152D01*
X115888496Y-81403152D02*
X115774211Y-81346009D01*
X115774211Y-81346009D02*
X115602782Y-81346009D01*
X115602782Y-81346009D02*
X115488496Y-81403152D01*
X115488496Y-81403152D02*
X115431354Y-81517438D01*
X115431354Y-81517438D02*
X115431354Y-82146009D01*
X115431354Y-81517438D02*
X115374211Y-81403152D01*
X115374211Y-81403152D02*
X115259925Y-81346009D01*
X115259925Y-81346009D02*
X115088496Y-81346009D01*
X115088496Y-81346009D02*
X114974211Y-81403152D01*
X114974211Y-81403152D02*
X114917068Y-81517438D01*
X114917068Y-81517438D02*
X114917068Y-82146009D01*
X114345639Y-82146009D02*
X114345639Y-81346009D01*
X114345639Y-81460295D02*
X114288496Y-81403152D01*
X114288496Y-81403152D02*
X114174211Y-81346009D01*
X114174211Y-81346009D02*
X114002782Y-81346009D01*
X114002782Y-81346009D02*
X113888496Y-81403152D01*
X113888496Y-81403152D02*
X113831354Y-81517438D01*
X113831354Y-81517438D02*
X113831354Y-82146009D01*
X113831354Y-81517438D02*
X113774211Y-81403152D01*
X113774211Y-81403152D02*
X113659925Y-81346009D01*
X113659925Y-81346009D02*
X113488496Y-81346009D01*
X113488496Y-81346009D02*
X113374211Y-81403152D01*
X113374211Y-81403152D02*
X113317068Y-81517438D01*
X113317068Y-81517438D02*
X113317068Y-82146009D01*
X121488496Y-84077942D02*
X121488496Y-82877942D01*
X121488496Y-82877942D02*
X121088496Y-83735085D01*
X121088496Y-83735085D02*
X120688496Y-82877942D01*
X120688496Y-82877942D02*
X120688496Y-84077942D01*
X119945639Y-84077942D02*
X120059924Y-84020800D01*
X120059924Y-84020800D02*
X120117067Y-83963657D01*
X120117067Y-83963657D02*
X120174210Y-83849371D01*
X120174210Y-83849371D02*
X120174210Y-83506514D01*
X120174210Y-83506514D02*
X120117067Y-83392228D01*
X120117067Y-83392228D02*
X120059924Y-83335085D01*
X120059924Y-83335085D02*
X119945639Y-83277942D01*
X119945639Y-83277942D02*
X119774210Y-83277942D01*
X119774210Y-83277942D02*
X119659924Y-83335085D01*
X119659924Y-83335085D02*
X119602782Y-83392228D01*
X119602782Y-83392228D02*
X119545639Y-83506514D01*
X119545639Y-83506514D02*
X119545639Y-83849371D01*
X119545639Y-83849371D02*
X119602782Y-83963657D01*
X119602782Y-83963657D02*
X119659924Y-84020800D01*
X119659924Y-84020800D02*
X119774210Y-84077942D01*
X119774210Y-84077942D02*
X119945639Y-84077942D01*
X118517068Y-83277942D02*
X118517068Y-84077942D01*
X119031353Y-83277942D02*
X119031353Y-83906514D01*
X119031353Y-83906514D02*
X118974210Y-84020800D01*
X118974210Y-84020800D02*
X118859925Y-84077942D01*
X118859925Y-84077942D02*
X118688496Y-84077942D01*
X118688496Y-84077942D02*
X118574210Y-84020800D01*
X118574210Y-84020800D02*
X118517068Y-83963657D01*
X117945639Y-83277942D02*
X117945639Y-84077942D01*
X117945639Y-83392228D02*
X117888496Y-83335085D01*
X117888496Y-83335085D02*
X117774211Y-83277942D01*
X117774211Y-83277942D02*
X117602782Y-83277942D01*
X117602782Y-83277942D02*
X117488496Y-83335085D01*
X117488496Y-83335085D02*
X117431354Y-83449371D01*
X117431354Y-83449371D02*
X117431354Y-84077942D01*
X117031354Y-83277942D02*
X116574211Y-83277942D01*
X116859925Y-82877942D02*
X116859925Y-83906514D01*
X116859925Y-83906514D02*
X116802782Y-84020800D01*
X116802782Y-84020800D02*
X116688497Y-84077942D01*
X116688497Y-84077942D02*
X116574211Y-84077942D01*
X115374211Y-82877942D02*
X114574211Y-82877942D01*
X114574211Y-82877942D02*
X115088497Y-84077942D01*
X113945640Y-83392228D02*
X114059925Y-83335085D01*
X114059925Y-83335085D02*
X114117068Y-83277942D01*
X114117068Y-83277942D02*
X114174211Y-83163657D01*
X114174211Y-83163657D02*
X114174211Y-83106514D01*
X114174211Y-83106514D02*
X114117068Y-82992228D01*
X114117068Y-82992228D02*
X114059925Y-82935085D01*
X114059925Y-82935085D02*
X113945640Y-82877942D01*
X113945640Y-82877942D02*
X113717068Y-82877942D01*
X113717068Y-82877942D02*
X113602783Y-82935085D01*
X113602783Y-82935085D02*
X113545640Y-82992228D01*
X113545640Y-82992228D02*
X113488497Y-83106514D01*
X113488497Y-83106514D02*
X113488497Y-83163657D01*
X113488497Y-83163657D02*
X113545640Y-83277942D01*
X113545640Y-83277942D02*
X113602783Y-83335085D01*
X113602783Y-83335085D02*
X113717068Y-83392228D01*
X113717068Y-83392228D02*
X113945640Y-83392228D01*
X113945640Y-83392228D02*
X114059925Y-83449371D01*
X114059925Y-83449371D02*
X114117068Y-83506514D01*
X114117068Y-83506514D02*
X114174211Y-83620800D01*
X114174211Y-83620800D02*
X114174211Y-83849371D01*
X114174211Y-83849371D02*
X114117068Y-83963657D01*
X114117068Y-83963657D02*
X114059925Y-84020800D01*
X114059925Y-84020800D02*
X113945640Y-84077942D01*
X113945640Y-84077942D02*
X113717068Y-84077942D01*
X113717068Y-84077942D02*
X113602783Y-84020800D01*
X113602783Y-84020800D02*
X113545640Y-83963657D01*
X113545640Y-83963657D02*
X113488497Y-83849371D01*
X113488497Y-83849371D02*
X113488497Y-83620800D01*
X113488497Y-83620800D02*
X113545640Y-83506514D01*
X113545640Y-83506514D02*
X113602783Y-83449371D01*
X113602783Y-83449371D02*
X113717068Y-83392228D01*
X112974211Y-83963657D02*
X112917068Y-84020800D01*
X112917068Y-84020800D02*
X112974211Y-84077942D01*
X112974211Y-84077942D02*
X113031354Y-84020800D01*
X113031354Y-84020800D02*
X112974211Y-83963657D01*
X112974211Y-83963657D02*
X112974211Y-84077942D01*
X111774211Y-84077942D02*
X112459925Y-84077942D01*
X112117068Y-84077942D02*
X112117068Y-82877942D01*
X112117068Y-82877942D02*
X112231354Y-83049371D01*
X112231354Y-83049371D02*
X112345639Y-83163657D01*
X112345639Y-83163657D02*
X112459925Y-83220800D01*
X111088497Y-83392228D02*
X111202782Y-83335085D01*
X111202782Y-83335085D02*
X111259925Y-83277942D01*
X111259925Y-83277942D02*
X111317068Y-83163657D01*
X111317068Y-83163657D02*
X111317068Y-83106514D01*
X111317068Y-83106514D02*
X111259925Y-82992228D01*
X111259925Y-82992228D02*
X111202782Y-82935085D01*
X111202782Y-82935085D02*
X111088497Y-82877942D01*
X111088497Y-82877942D02*
X110859925Y-82877942D01*
X110859925Y-82877942D02*
X110745640Y-82935085D01*
X110745640Y-82935085D02*
X110688497Y-82992228D01*
X110688497Y-82992228D02*
X110631354Y-83106514D01*
X110631354Y-83106514D02*
X110631354Y-83163657D01*
X110631354Y-83163657D02*
X110688497Y-83277942D01*
X110688497Y-83277942D02*
X110745640Y-83335085D01*
X110745640Y-83335085D02*
X110859925Y-83392228D01*
X110859925Y-83392228D02*
X111088497Y-83392228D01*
X111088497Y-83392228D02*
X111202782Y-83449371D01*
X111202782Y-83449371D02*
X111259925Y-83506514D01*
X111259925Y-83506514D02*
X111317068Y-83620800D01*
X111317068Y-83620800D02*
X111317068Y-83849371D01*
X111317068Y-83849371D02*
X111259925Y-83963657D01*
X111259925Y-83963657D02*
X111202782Y-84020800D01*
X111202782Y-84020800D02*
X111088497Y-84077942D01*
X111088497Y-84077942D02*
X110859925Y-84077942D01*
X110859925Y-84077942D02*
X110745640Y-84020800D01*
X110745640Y-84020800D02*
X110688497Y-83963657D01*
X110688497Y-83963657D02*
X110631354Y-83849371D01*
X110631354Y-83849371D02*
X110631354Y-83620800D01*
X110631354Y-83620800D02*
X110688497Y-83506514D01*
X110688497Y-83506514D02*
X110745640Y-83449371D01*
X110745640Y-83449371D02*
X110859925Y-83392228D01*
X109602783Y-83277942D02*
X109602783Y-84077942D01*
X109888497Y-82820800D02*
X110174211Y-83677942D01*
X110174211Y-83677942D02*
X109431354Y-83677942D01*
X109088497Y-84077942D02*
X108459926Y-83277942D01*
X109088497Y-83277942D02*
X108459926Y-84077942D01*
X108117068Y-82877942D02*
X107374211Y-82877942D01*
X107374211Y-82877942D02*
X107774211Y-83335085D01*
X107774211Y-83335085D02*
X107602782Y-83335085D01*
X107602782Y-83335085D02*
X107488497Y-83392228D01*
X107488497Y-83392228D02*
X107431354Y-83449371D01*
X107431354Y-83449371D02*
X107374211Y-83563657D01*
X107374211Y-83563657D02*
X107374211Y-83849371D01*
X107374211Y-83849371D02*
X107431354Y-83963657D01*
X107431354Y-83963657D02*
X107488497Y-84020800D01*
X107488497Y-84020800D02*
X107602782Y-84077942D01*
X107602782Y-84077942D02*
X107945639Y-84077942D01*
X107945639Y-84077942D02*
X108059925Y-84020800D01*
X108059925Y-84020800D02*
X108117068Y-83963657D01*
X106974211Y-82877942D02*
X106231354Y-82877942D01*
X106231354Y-82877942D02*
X106631354Y-83335085D01*
X106631354Y-83335085D02*
X106459925Y-83335085D01*
X106459925Y-83335085D02*
X106345640Y-83392228D01*
X106345640Y-83392228D02*
X106288497Y-83449371D01*
X106288497Y-83449371D02*
X106231354Y-83563657D01*
X106231354Y-83563657D02*
X106231354Y-83849371D01*
X106231354Y-83849371D02*
X106288497Y-83963657D01*
X106288497Y-83963657D02*
X106345640Y-84020800D01*
X106345640Y-84020800D02*
X106459925Y-84077942D01*
X106459925Y-84077942D02*
X106802782Y-84077942D01*
X106802782Y-84077942D02*
X106917068Y-84020800D01*
X106917068Y-84020800D02*
X106974211Y-83963657D01*
X105717068Y-83963657D02*
X105659925Y-84020800D01*
X105659925Y-84020800D02*
X105717068Y-84077942D01*
X105717068Y-84077942D02*
X105774211Y-84020800D01*
X105774211Y-84020800D02*
X105717068Y-83963657D01*
X105717068Y-83963657D02*
X105717068Y-84077942D01*
X105259925Y-82877942D02*
X104459925Y-82877942D01*
X104459925Y-82877942D02*
X104974211Y-84077942D01*
X103831354Y-83392228D02*
X103945639Y-83335085D01*
X103945639Y-83335085D02*
X104002782Y-83277942D01*
X104002782Y-83277942D02*
X104059925Y-83163657D01*
X104059925Y-83163657D02*
X104059925Y-83106514D01*
X104059925Y-83106514D02*
X104002782Y-82992228D01*
X104002782Y-82992228D02*
X103945639Y-82935085D01*
X103945639Y-82935085D02*
X103831354Y-82877942D01*
X103831354Y-82877942D02*
X103602782Y-82877942D01*
X103602782Y-82877942D02*
X103488497Y-82935085D01*
X103488497Y-82935085D02*
X103431354Y-82992228D01*
X103431354Y-82992228D02*
X103374211Y-83106514D01*
X103374211Y-83106514D02*
X103374211Y-83163657D01*
X103374211Y-83163657D02*
X103431354Y-83277942D01*
X103431354Y-83277942D02*
X103488497Y-83335085D01*
X103488497Y-83335085D02*
X103602782Y-83392228D01*
X103602782Y-83392228D02*
X103831354Y-83392228D01*
X103831354Y-83392228D02*
X103945639Y-83449371D01*
X103945639Y-83449371D02*
X104002782Y-83506514D01*
X104002782Y-83506514D02*
X104059925Y-83620800D01*
X104059925Y-83620800D02*
X104059925Y-83849371D01*
X104059925Y-83849371D02*
X104002782Y-83963657D01*
X104002782Y-83963657D02*
X103945639Y-84020800D01*
X103945639Y-84020800D02*
X103831354Y-84077942D01*
X103831354Y-84077942D02*
X103602782Y-84077942D01*
X103602782Y-84077942D02*
X103488497Y-84020800D01*
X103488497Y-84020800D02*
X103431354Y-83963657D01*
X103431354Y-83963657D02*
X103374211Y-83849371D01*
X103374211Y-83849371D02*
X103374211Y-83620800D01*
X103374211Y-83620800D02*
X103431354Y-83506514D01*
X103431354Y-83506514D02*
X103488497Y-83449371D01*
X103488497Y-83449371D02*
X103602782Y-83392228D01*
X102917068Y-82992228D02*
X102859925Y-82935085D01*
X102859925Y-82935085D02*
X102745640Y-82877942D01*
X102745640Y-82877942D02*
X102459925Y-82877942D01*
X102459925Y-82877942D02*
X102345640Y-82935085D01*
X102345640Y-82935085D02*
X102288497Y-82992228D01*
X102288497Y-82992228D02*
X102231354Y-83106514D01*
X102231354Y-83106514D02*
X102231354Y-83220800D01*
X102231354Y-83220800D02*
X102288497Y-83392228D01*
X102288497Y-83392228D02*
X102974211Y-84077942D01*
X102974211Y-84077942D02*
X102231354Y-84077942D01*
X101717068Y-84077942D02*
X101717068Y-83277942D01*
X101717068Y-83392228D02*
X101659925Y-83335085D01*
X101659925Y-83335085D02*
X101545640Y-83277942D01*
X101545640Y-83277942D02*
X101374211Y-83277942D01*
X101374211Y-83277942D02*
X101259925Y-83335085D01*
X101259925Y-83335085D02*
X101202783Y-83449371D01*
X101202783Y-83449371D02*
X101202783Y-84077942D01*
X101202783Y-83449371D02*
X101145640Y-83335085D01*
X101145640Y-83335085D02*
X101031354Y-83277942D01*
X101031354Y-83277942D02*
X100859925Y-83277942D01*
X100859925Y-83277942D02*
X100745640Y-83335085D01*
X100745640Y-83335085D02*
X100688497Y-83449371D01*
X100688497Y-83449371D02*
X100688497Y-84077942D01*
X100117068Y-84077942D02*
X100117068Y-83277942D01*
X100117068Y-83392228D02*
X100059925Y-83335085D01*
X100059925Y-83335085D02*
X99945640Y-83277942D01*
X99945640Y-83277942D02*
X99774211Y-83277942D01*
X99774211Y-83277942D02*
X99659925Y-83335085D01*
X99659925Y-83335085D02*
X99602783Y-83449371D01*
X99602783Y-83449371D02*
X99602783Y-84077942D01*
X99602783Y-83449371D02*
X99545640Y-83335085D01*
X99545640Y-83335085D02*
X99431354Y-83277942D01*
X99431354Y-83277942D02*
X99259925Y-83277942D01*
X99259925Y-83277942D02*
X99145640Y-83335085D01*
X99145640Y-83335085D02*
X99088497Y-83449371D01*
X99088497Y-83449371D02*
X99088497Y-84077942D01*
M02*
